<?xml version="1.0"?>
<svg xmlns="http://www.w3.org/2000/svg" xmlns:xlink="http://www.w3.org/1999/xlink" xmlns:svgjs="http://svgjs.com/svgjs" version="1.1" width="512" height="512" x="0" y="0" viewBox="0 0 512 512" style="enable-background:new 0 0 512 512" xml:space="preserve" class=""><g>
<g xmlns="http://www.w3.org/2000/svg">
	<g>
		<path d="M347.166,344.501l122.091-162.273L150.622,54.876L77.883,236.87l124.841,49.898l-15.348,38.278    c-1.236-0.09-2.472-0.159-3.717-0.159c-21.267,0-39.334,13.893-45.633,33.076H90.359v-66.272H0v165.432h90.359v-69.262h47.666    c6.298,19.184,24.367,33.076,45.633,33.076c26.479,0,48.025-21.536,48.025-48.025c0-14.521-6.488-27.545-16.713-36.365    l15.517-38.687L347.166,344.501z M322.013,251.72l27.764,11.092l-11.102,27.764l-27.755-11.092L322.013,251.72z" fill="#00959b" data-original="#000000" style="" class=""/>
	</g>
</g>
<g xmlns="http://www.w3.org/2000/svg">
	<g>
		<polygon points="478.107,220.198 395.849,329.523 462.999,356.36 512,233.741   " fill="#00959b" data-original="#000000" style="" class=""/>
	</g>
</g>
<g xmlns="http://www.w3.org/2000/svg">
</g>
<g xmlns="http://www.w3.org/2000/svg">
</g>
<g xmlns="http://www.w3.org/2000/svg">
</g>
<g xmlns="http://www.w3.org/2000/svg">
</g>
<g xmlns="http://www.w3.org/2000/svg">
</g>
<g xmlns="http://www.w3.org/2000/svg">
</g>
<g xmlns="http://www.w3.org/2000/svg">
</g>
<g xmlns="http://www.w3.org/2000/svg">
</g>
<g xmlns="http://www.w3.org/2000/svg">
</g>
<g xmlns="http://www.w3.org/2000/svg">
</g>
<g xmlns="http://www.w3.org/2000/svg">
</g>
<g xmlns="http://www.w3.org/2000/svg">
</g>
<g xmlns="http://www.w3.org/2000/svg">
</g>
<g xmlns="http://www.w3.org/2000/svg">
</g>
<g xmlns="http://www.w3.org/2000/svg">
</g>
</g></svg>
