<?xml version="1.0"?>
<svg xmlns="http://www.w3.org/2000/svg" xmlns:xlink="http://www.w3.org/1999/xlink" xmlns:svgjs="http://svgjs.com/svgjs" version="1.1" width="512" height="512" x="0" y="0" viewBox="0 0 512 512" style="enable-background:new 0 0 512 512" xml:space="preserve" class=""><g><g xmlns="http://www.w3.org/2000/svg"><path d="m375.849 163.879-15-105c-.846-5.92-5.127-10.772-10.896-12.348-2.321-.635-57.263-15.531-93.953-15.531s-91.632 14.896-93.954 15.53c-5.769 1.576-10.05 6.428-10.896 12.348l-15 105c-.057.407-.15 1.398-.15 2.122v210c0 .81.145 2.214.292 2.942l15 75c1.114 5.569 5.277 10.031 10.755 11.528 2.321.634 57.263 15.53 93.953 15.53s91.632-14.896 93.954-15.53c5.478-1.497 9.641-5.959 10.755-11.528l15-75c.14-.699.292-2.065.292-2.942v-210c-.001-.707-.096-1.727-.152-2.121zm-59.849 172.85v-104.516l30-30v149.516zm-21.213-125.729h-77.574l-30-30h137.574zm-128.787-8.787 30 30v104.516l-30 15zm60 38.787h60v90h-60zm-46.569-167.953c16.782-4.12 52.237-12.047 76.569-12.047 24.291 0 59.776 7.93 76.569 12.049 4.803 33.618 6.308 44.155 11.136 77.951h-175.41c1.19-8.328 11.551-80.856 11.136-77.953zm76.569 377.953c-24.57 0-60.594-8.114-77.141-12.19l-10.903-54.517 46.585-23.293h82.918l46.585 23.293-10.904 54.52c-16.536 4.076-52.528 12.187-77.14 12.187z" fill="#00959b" data-original="#000000" style="" class=""/><path d="m52.046 181.716c-5.851-5.865-15.348-5.878-21.213-.027-19.883 19.831-30.833 46.222-30.833 74.311s10.95 54.48 30.833 74.312c5.857 5.842 15.354 5.846 21.213-.027 5.851-5.865 5.838-15.363-.027-21.213-14.199-14.163-22.019-33.011-22.019-53.072s7.82-38.909 22.019-53.071c5.865-5.85 5.877-15.348.027-21.213z" fill="#00959b" data-original="#000000" style="" class=""/><path d="m94.393 224.18c-5.858-5.857-15.356-5.857-21.213 0-8.499 8.5-13.18 19.8-13.18 31.82s4.681 23.32 13.18 31.82c5.857 5.857 15.355 5.859 21.213 0 5.858-5.858 5.858-15.355 0-21.213-2.832-2.834-4.393-6.6-4.393-10.607s1.561-7.773 4.394-10.607c5.857-5.858 5.857-15.355-.001-21.213z" fill="#00959b" data-original="#000000" style="" class=""/><path d="m481.167 181.688c-5.865-5.85-15.363-5.838-21.213.027-5.851 5.865-5.838 15.363.027 21.213 14.199 14.163 22.019 33.011 22.019 53.072s-7.82 38.909-22.019 53.071c-5.866 5.85-5.878 15.348-.027 21.213 5.841 5.856 15.338 5.887 21.213.027 19.883-19.831 30.833-46.222 30.833-74.311s-10.95-54.48-30.833-74.312z" fill="#00959b" data-original="#000000" style="" class=""/><path d="m417.607 224.18c-5.858 5.858-5.858 15.355 0 21.213 2.833 2.833 4.394 6.6 4.394 10.607s-1.561 7.773-4.394 10.607c-5.857 5.858-5.857 15.355 0 21.213 5.859 5.858 15.356 5.857 21.213 0 8.499-8.5 13.18-19.8 13.18-31.82s-4.681-23.32-13.18-31.82c-5.858-5.857-15.355-5.858-21.213 0z" fill="#00959b" data-original="#000000" style="" class=""/></g></g></svg>
